<mxfile host="app.diagrams.net" modified="2021-06-05T05:55:58.331Z" agent="5.0 (Macintosh; Intel Mac OS X 10_15_7) AppleWebKit/537.36 (KHTML, like Gecko) Chrome/89.0.4389.114 Safari/537.36" etag="msOGDi6tiv6l6K7nOu2P" version="14.7.2" type="github">
  <diagram id="BB7XbYbS8ygQ2GhtSa3Q" name="Page-1">
    <mxGraphModel dx="1113" dy="722" grid="0" gridSize="10" guides="1" tooltips="1" connect="1" arrows="1" fold="1" page="0" pageScale="1" pageWidth="2336" pageHeight="1654" math="0" shadow="0">
      <root>
        <mxCell id="0" />
        <mxCell id="1" parent="0" />
        <mxCell id="x5FEee_XjgUS8_5zKWIf-84" value="" style="rounded=1;whiteSpace=wrap;html=1;verticalAlign=top;fillColor=#f8cecc;strokeColor=#b85450;" vertex="1" parent="1">
          <mxGeometry x="212.5" y="450" width="997.5" height="120" as="geometry" />
        </mxCell>
        <mxCell id="x5FEee_XjgUS8_5zKWIf-66" value="" style="rounded=1;whiteSpace=wrap;html=1;verticalAlign=top;fillColor=#dae8fc;strokeColor=#6c8ebf;" vertex="1" parent="1">
          <mxGeometry x="212.5" y="67.5" width="347.5" height="345" as="geometry" />
        </mxCell>
        <mxCell id="x5FEee_XjgUS8_5zKWIf-57" value="" style="rounded=1;whiteSpace=wrap;html=1;verticalAlign=top;fillColor=#d5e8d4;strokeColor=#82b366;" vertex="1" parent="1">
          <mxGeometry x="590" y="70" width="620" height="340" as="geometry" />
        </mxCell>
        <mxCell id="x5FEee_XjgUS8_5zKWIf-21" style="edgeStyle=orthogonalEdgeStyle;rounded=0;orthogonalLoop=1;jettySize=auto;html=1;exitX=1;exitY=0.3333333333333333;exitDx=0;exitDy=0;exitPerimeter=0;" edge="1" parent="1" source="x5FEee_XjgUS8_5zKWIf-10">
          <mxGeometry relative="1" as="geometry">
            <mxPoint x="390" y="250" as="targetPoint" />
            <Array as="points">
              <mxPoint x="390" y="137" />
              <mxPoint x="390" y="250" />
            </Array>
          </mxGeometry>
        </mxCell>
        <mxCell id="x5FEee_XjgUS8_5zKWIf-10" value="运营" style="shape=umlActor;verticalLabelPosition=bottom;verticalAlign=top;html=1;outlineConnect=0;" vertex="1" parent="1">
          <mxGeometry x="260" y="120" width="30" height="50" as="geometry" />
        </mxCell>
        <mxCell id="x5FEee_XjgUS8_5zKWIf-20" style="edgeStyle=orthogonalEdgeStyle;rounded=0;orthogonalLoop=1;jettySize=auto;html=1;exitX=0.5;exitY=0.5;exitDx=0;exitDy=0;exitPerimeter=0;entryX=0;entryY=0.5;entryDx=0;entryDy=0;" edge="1" parent="1" source="x5FEee_XjgUS8_5zKWIf-15" target="x5FEee_XjgUS8_5zKWIf-18">
          <mxGeometry relative="1" as="geometry">
            <Array as="points">
              <mxPoint x="390" y="248" />
              <mxPoint x="390" y="248" />
            </Array>
          </mxGeometry>
        </mxCell>
        <mxCell id="x5FEee_XjgUS8_5zKWIf-15" value="运营" style="shape=umlActor;verticalLabelPosition=bottom;verticalAlign=top;html=1;outlineConnect=0;" vertex="1" parent="1">
          <mxGeometry x="260" y="220" width="30" height="55" as="geometry" />
        </mxCell>
        <mxCell id="x5FEee_XjgUS8_5zKWIf-22" style="edgeStyle=orthogonalEdgeStyle;rounded=0;orthogonalLoop=1;jettySize=auto;html=1;exitX=1;exitY=0.3333333333333333;exitDx=0;exitDy=0;exitPerimeter=0;" edge="1" parent="1" source="x5FEee_XjgUS8_5zKWIf-16">
          <mxGeometry relative="1" as="geometry">
            <mxPoint x="390" y="250" as="targetPoint" />
            <Array as="points">
              <mxPoint x="390" y="337" />
              <mxPoint x="390" y="250" />
            </Array>
          </mxGeometry>
        </mxCell>
        <mxCell id="x5FEee_XjgUS8_5zKWIf-16" value="运营" style="shape=umlActor;verticalLabelPosition=bottom;verticalAlign=top;html=1;outlineConnect=0;" vertex="1" parent="1">
          <mxGeometry x="260" y="320" width="30" height="50" as="geometry" />
        </mxCell>
        <mxCell id="x5FEee_XjgUS8_5zKWIf-92" style="edgeStyle=orthogonalEdgeStyle;rounded=0;orthogonalLoop=1;jettySize=auto;html=1;exitX=1;exitY=0.5;exitDx=0;exitDy=0;entryX=0;entryY=0.5;entryDx=0;entryDy=0;startArrow=none;startFill=0;endArrow=classic;endFill=1;" edge="1" parent="1" source="x5FEee_XjgUS8_5zKWIf-18" target="x5FEee_XjgUS8_5zKWIf-32">
          <mxGeometry relative="1" as="geometry" />
        </mxCell>
        <mxCell id="x5FEee_XjgUS8_5zKWIf-18" value="1. 创建标签&lt;br&gt;2. 实体打标" style="rounded=0;whiteSpace=wrap;html=1;verticalAlign=top;" vertex="1" parent="1">
          <mxGeometry x="440" y="227.5" width="90" height="40" as="geometry" />
        </mxCell>
        <mxCell id="x5FEee_XjgUS8_5zKWIf-23" value="类目标签" style="text;html=1;strokeColor=#d6b656;fillColor=#fff2cc;align=center;verticalAlign=middle;whiteSpace=wrap;rounded=0;" vertex="1" parent="1">
          <mxGeometry x="320" y="140" width="60" height="20" as="geometry" />
        </mxCell>
        <mxCell id="x5FEee_XjgUS8_5zKWIf-24" value="商品标签" style="text;html=1;strokeColor=#d6b656;fillColor=#fff2cc;align=center;verticalAlign=middle;whiteSpace=wrap;rounded=0;" vertex="1" parent="1">
          <mxGeometry x="320" y="225" width="60" height="20" as="geometry" />
        </mxCell>
        <mxCell id="x5FEee_XjgUS8_5zKWIf-26" value="商家标签" style="text;html=1;strokeColor=#d6b656;fillColor=#fff2cc;align=center;verticalAlign=middle;whiteSpace=wrap;rounded=0;" vertex="1" parent="1">
          <mxGeometry x="320" y="310" width="60" height="20" as="geometry" />
        </mxCell>
        <mxCell id="x5FEee_XjgUS8_5zKWIf-29" value="运营平台" style="rounded=0;whiteSpace=wrap;html=1;verticalAlign=top;fillColor=#f8cecc;strokeColor=#b85450;" vertex="1" parent="1">
          <mxGeometry x="356.25" y="80" width="60" height="30" as="geometry" />
        </mxCell>
        <mxCell id="x5FEee_XjgUS8_5zKWIf-36" style="edgeStyle=orthogonalEdgeStyle;rounded=0;orthogonalLoop=1;jettySize=auto;html=1;exitX=1;exitY=0.5;exitDx=0;exitDy=0;entryX=0;entryY=0.5;entryDx=0;entryDy=0;entryPerimeter=0;" edge="1" parent="1" source="x5FEee_XjgUS8_5zKWIf-31" target="x5FEee_XjgUS8_5zKWIf-34">
          <mxGeometry relative="1" as="geometry" />
        </mxCell>
        <mxCell id="x5FEee_XjgUS8_5zKWIf-95" style="edgeStyle=orthogonalEdgeStyle;rounded=0;orthogonalLoop=1;jettySize=auto;html=1;exitX=0;exitY=0.5;exitDx=0;exitDy=0;startArrow=classic;startFill=1;endArrow=none;endFill=0;" edge="1" parent="1" source="x5FEee_XjgUS8_5zKWIf-31">
          <mxGeometry relative="1" as="geometry">
            <mxPoint x="576.4117647058824" y="248.23529411764707" as="targetPoint" />
          </mxGeometry>
        </mxCell>
        <mxCell id="x5FEee_XjgUS8_5zKWIf-31" value="cmp.ecpm.tag" style="rounded=0;whiteSpace=wrap;html=1;verticalAlign=top;" vertex="1" parent="1">
          <mxGeometry x="630" y="130" width="120" height="30" as="geometry" />
        </mxCell>
        <mxCell id="x5FEee_XjgUS8_5zKWIf-32" value="cmp.ecpm.tag" style="rounded=0;whiteSpace=wrap;html=1;verticalAlign=top;" vertex="1" parent="1">
          <mxGeometry x="632" y="234" width="121" height="26" as="geometry" />
        </mxCell>
        <mxCell id="x5FEee_XjgUS8_5zKWIf-38" style="edgeStyle=orthogonalEdgeStyle;rounded=0;orthogonalLoop=1;jettySize=auto;html=1;exitX=1;exitY=0.5;exitDx=0;exitDy=0;entryX=0.5;entryY=1;entryDx=0;entryDy=0;" edge="1" parent="1" source="x5FEee_XjgUS8_5zKWIf-33" target="x5FEee_XjgUS8_5zKWIf-32">
          <mxGeometry relative="1" as="geometry" />
        </mxCell>
        <mxCell id="x5FEee_XjgUS8_5zKWIf-96" style="edgeStyle=orthogonalEdgeStyle;rounded=0;orthogonalLoop=1;jettySize=auto;html=1;exitX=0;exitY=0.5;exitDx=0;exitDy=0;startArrow=classic;startFill=1;endArrow=none;endFill=0;" edge="1" parent="1" source="x5FEee_XjgUS8_5zKWIf-33">
          <mxGeometry relative="1" as="geometry">
            <mxPoint x="576.4117647058824" y="247.05882352941182" as="targetPoint" />
          </mxGeometry>
        </mxCell>
        <mxCell id="x5FEee_XjgUS8_5zKWIf-33" value="ecom.shop.platform" style="rounded=0;whiteSpace=wrap;html=1;verticalAlign=top;" vertex="1" parent="1">
          <mxGeometry x="630" y="340" width="120" height="30" as="geometry" />
        </mxCell>
        <mxCell id="x5FEee_XjgUS8_5zKWIf-43" style="edgeStyle=orthogonalEdgeStyle;rounded=0;orthogonalLoop=1;jettySize=auto;html=1;exitX=1;exitY=0.5;exitDx=0;exitDy=0;exitPerimeter=0;" edge="1" parent="1" source="x5FEee_XjgUS8_5zKWIf-34" target="x5FEee_XjgUS8_5zKWIf-39">
          <mxGeometry relative="1" as="geometry" />
        </mxCell>
        <mxCell id="x5FEee_XjgUS8_5zKWIf-34" value="类目&lt;br&gt;标签库" style="shape=cylinder3;whiteSpace=wrap;html=1;boundedLbl=1;backgroundOutline=1;size=15;verticalAlign=top;" vertex="1" parent="1">
          <mxGeometry x="808" y="114" width="94" height="64" as="geometry" />
        </mxCell>
        <mxCell id="x5FEee_XjgUS8_5zKWIf-48" style="edgeStyle=orthogonalEdgeStyle;rounded=0;orthogonalLoop=1;jettySize=auto;html=1;exitX=1;exitY=0.5;exitDx=0;exitDy=0;exitPerimeter=0;endArrow=classic;endFill=1;" edge="1" parent="1" source="x5FEee_XjgUS8_5zKWIf-35">
          <mxGeometry relative="1" as="geometry">
            <mxPoint x="980" y="150" as="targetPoint" />
          </mxGeometry>
        </mxCell>
        <mxCell id="x5FEee_XjgUS8_5zKWIf-114" style="edgeStyle=orthogonalEdgeStyle;rounded=0;orthogonalLoop=1;jettySize=auto;html=1;exitX=0;exitY=0;exitDx=0;exitDy=41.25;exitPerimeter=0;entryX=1;entryY=0.5;entryDx=0;entryDy=0;startArrow=classic;startFill=1;endArrow=none;endFill=0;" edge="1" parent="1" source="x5FEee_XjgUS8_5zKWIf-35" target="x5FEee_XjgUS8_5zKWIf-32">
          <mxGeometry relative="1" as="geometry" />
        </mxCell>
        <mxCell id="x5FEee_XjgUS8_5zKWIf-35" value="商品/商家&lt;br&gt;标签库" style="shape=cylinder3;whiteSpace=wrap;html=1;boundedLbl=1;backgroundOutline=1;size=15;verticalAlign=top;" vertex="1" parent="1">
          <mxGeometry x="807.5" y="205" width="95" height="65" as="geometry" />
        </mxCell>
        <mxCell id="x5FEee_XjgUS8_5zKWIf-52" style="edgeStyle=orthogonalEdgeStyle;rounded=0;orthogonalLoop=1;jettySize=auto;html=1;exitX=0.5;exitY=1;exitDx=0;exitDy=0;entryX=0.5;entryY=0;entryDx=0;entryDy=0;endArrow=classic;endFill=1;" edge="1" parent="1" source="x5FEee_XjgUS8_5zKWIf-39" target="x5FEee_XjgUS8_5zKWIf-40">
          <mxGeometry relative="1" as="geometry" />
        </mxCell>
        <mxCell id="x5FEee_XjgUS8_5zKWIf-39" value="rocketmq" style="shape=parallelogram;perimeter=parallelogramPerimeter;whiteSpace=wrap;html=1;fixedSize=1;verticalAlign=top;" vertex="1" parent="1">
          <mxGeometry x="1059" y="130" width="91" height="30" as="geometry" />
        </mxCell>
        <mxCell id="x5FEee_XjgUS8_5zKWIf-53" style="edgeStyle=orthogonalEdgeStyle;rounded=0;orthogonalLoop=1;jettySize=auto;html=1;exitX=0.5;exitY=1;exitDx=0;exitDy=0;entryX=0.5;entryY=0;entryDx=0;entryDy=0;endArrow=classic;endFill=1;" edge="1" parent="1" source="x5FEee_XjgUS8_5zKWIf-40" target="x5FEee_XjgUS8_5zKWIf-41">
          <mxGeometry relative="1" as="geometry" />
        </mxCell>
        <mxCell id="x5FEee_XjgUS8_5zKWIf-40" value="Fass" style="rounded=0;whiteSpace=wrap;html=1;verticalAlign=top;" vertex="1" parent="1">
          <mxGeometry x="1063.5" y="190" width="82" height="30" as="geometry" />
        </mxCell>
        <mxCell id="x5FEee_XjgUS8_5zKWIf-55" style="edgeStyle=orthogonalEdgeStyle;rounded=0;orthogonalLoop=1;jettySize=auto;html=1;exitX=0.5;exitY=1;exitDx=0;exitDy=0;entryX=0.5;entryY=0;entryDx=0;entryDy=0;entryPerimeter=0;endArrow=classic;endFill=1;" edge="1" parent="1" source="x5FEee_XjgUS8_5zKWIf-41" target="x5FEee_XjgUS8_5zKWIf-42">
          <mxGeometry relative="1" as="geometry" />
        </mxCell>
        <mxCell id="x5FEee_XjgUS8_5zKWIf-105" style="edgeStyle=orthogonalEdgeStyle;rounded=0;orthogonalLoop=1;jettySize=auto;html=1;startArrow=classic;startFill=1;endArrow=none;endFill=0;entryX=1;entryY=0.5;entryDx=0;entryDy=0;" edge="1" parent="1" target="x5FEee_XjgUS8_5zKWIf-75">
          <mxGeometry relative="1" as="geometry">
            <mxPoint x="1063" y="268" as="sourcePoint" />
            <mxPoint x="961" y="323" as="targetPoint" />
            <Array as="points">
              <mxPoint x="910" y="268" />
              <mxPoint x="910" y="505" />
            </Array>
          </mxGeometry>
        </mxCell>
        <mxCell id="x5FEee_XjgUS8_5zKWIf-41" value="cmp.srv.goods" style="rounded=0;whiteSpace=wrap;html=1;verticalAlign=top;" vertex="1" parent="1">
          <mxGeometry x="1063.5" y="255" width="82" height="25" as="geometry" />
        </mxCell>
        <mxCell id="x5FEee_XjgUS8_5zKWIf-42" value="abase" style="shape=cylinder3;whiteSpace=wrap;html=1;boundedLbl=1;backgroundOutline=1;size=15;verticalAlign=top;" vertex="1" parent="1">
          <mxGeometry x="1063.5" y="321" width="81.5" height="68" as="geometry" />
        </mxCell>
        <mxCell id="x5FEee_XjgUS8_5zKWIf-49" value="binlog" style="text;html=1;strokeColor=none;fillColor=none;align=center;verticalAlign=middle;whiteSpace=wrap;rounded=0;" vertex="1" parent="1">
          <mxGeometry x="924" y="124" width="40" height="20" as="geometry" />
        </mxCell>
        <mxCell id="x5FEee_XjgUS8_5zKWIf-50" value="binlog" style="text;html=1;strokeColor=none;fillColor=none;align=center;verticalAlign=middle;whiteSpace=wrap;rounded=0;" vertex="1" parent="1">
          <mxGeometry x="940" y="205" width="40" height="20" as="geometry" />
        </mxCell>
        <mxCell id="x5FEee_XjgUS8_5zKWIf-54" value="invoke" style="text;html=1;align=center;verticalAlign=middle;whiteSpace=wrap;rounded=0;" vertex="1" parent="1">
          <mxGeometry x="1108" y="225" width="40" height="20" as="geometry" />
        </mxCell>
        <mxCell id="x5FEee_XjgUS8_5zKWIf-56" value="write/read" style="text;html=1;strokeColor=none;fillColor=none;align=center;verticalAlign=middle;whiteSpace=wrap;rounded=0;" vertex="1" parent="1">
          <mxGeometry x="1120" y="290" width="40" height="20" as="geometry" />
        </mxCell>
        <mxCell id="x5FEee_XjgUS8_5zKWIf-61" value="标签中心" style="rounded=0;whiteSpace=wrap;html=1;verticalAlign=top;fillColor=#f8cecc;strokeColor=#b85450;" vertex="1" parent="1">
          <mxGeometry x="870" y="80" width="60" height="30" as="geometry" />
        </mxCell>
        <mxCell id="x5FEee_XjgUS8_5zKWIf-80" style="edgeStyle=orthogonalEdgeStyle;rounded=0;orthogonalLoop=1;jettySize=auto;html=1;exitX=0.5;exitY=0.5;exitDx=0;exitDy=0;exitPerimeter=0;entryX=0;entryY=0.5;entryDx=0;entryDy=0;endArrow=classic;endFill=1;" edge="1" parent="1" source="x5FEee_XjgUS8_5zKWIf-71" target="x5FEee_XjgUS8_5zKWIf-73">
          <mxGeometry relative="1" as="geometry" />
        </mxCell>
        <mxCell id="x5FEee_XjgUS8_5zKWIf-71" value="c端用户" style="shape=umlActor;verticalLabelPosition=bottom;verticalAlign=top;html=1;outlineConnect=0;" vertex="1" parent="1">
          <mxGeometry x="255" y="480" width="25" height="50" as="geometry" />
        </mxCell>
        <mxCell id="x5FEee_XjgUS8_5zKWIf-81" style="edgeStyle=orthogonalEdgeStyle;rounded=0;orthogonalLoop=1;jettySize=auto;html=1;exitX=1;exitY=0.5;exitDx=0;exitDy=0;entryX=0;entryY=0.5;entryDx=0;entryDy=0;endArrow=classic;endFill=1;" edge="1" parent="1" source="x5FEee_XjgUS8_5zKWIf-73" target="x5FEee_XjgUS8_5zKWIf-74">
          <mxGeometry relative="1" as="geometry" />
        </mxCell>
        <mxCell id="x5FEee_XjgUS8_5zKWIf-73" value="goapi_shop" style="rounded=0;whiteSpace=wrap;html=1;verticalAlign=top;" vertex="1" parent="1">
          <mxGeometry x="340" y="490" width="120" height="30" as="geometry" />
        </mxCell>
        <mxCell id="x5FEee_XjgUS8_5zKWIf-82" style="edgeStyle=orthogonalEdgeStyle;rounded=0;orthogonalLoop=1;jettySize=auto;html=1;exitX=1;exitY=0.5;exitDx=0;exitDy=0;entryX=0;entryY=0.5;entryDx=0;entryDy=0;endArrow=classic;endFill=1;" edge="1" parent="1" source="x5FEee_XjgUS8_5zKWIf-74" target="x5FEee_XjgUS8_5zKWIf-75">
          <mxGeometry relative="1" as="geometry" />
        </mxCell>
        <mxCell id="x5FEee_XjgUS8_5zKWIf-74" value="alliance_pack" style="rounded=0;whiteSpace=wrap;html=1;verticalAlign=top;" vertex="1" parent="1">
          <mxGeometry x="530" y="490" width="120" height="30" as="geometry" />
        </mxCell>
        <mxCell id="x5FEee_XjgUS8_5zKWIf-83" style="edgeStyle=orthogonalEdgeStyle;rounded=0;orthogonalLoop=1;jettySize=auto;html=1;exitX=1;exitY=0.5;exitDx=0;exitDy=0;endArrow=classic;endFill=1;" edge="1" parent="1" source="x5FEee_XjgUS8_5zKWIf-75" target="x5FEee_XjgUS8_5zKWIf-76">
          <mxGeometry relative="1" as="geometry" />
        </mxCell>
        <mxCell id="x5FEee_XjgUS8_5zKWIf-75" value="product_customer" style="rounded=0;whiteSpace=wrap;html=1;verticalAlign=top;" vertex="1" parent="1">
          <mxGeometry x="720" y="490" width="120" height="30" as="geometry" />
        </mxCell>
        <mxCell id="x5FEee_XjgUS8_5zKWIf-76" value="&lt;font style=&quot;font-size: 14px&quot;&gt;tag_customer&lt;/font&gt;" style="rounded=0;whiteSpace=wrap;html=1;verticalAlign=top;align=center;" vertex="1" parent="1">
          <mxGeometry x="1048.5" y="485" width="112" height="40" as="geometry" />
        </mxCell>
        <mxCell id="x5FEee_XjgUS8_5zKWIf-97" value="标签信息" style="text;html=1;strokeColor=none;fillColor=none;align=center;verticalAlign=middle;whiteSpace=wrap;rounded=0;" vertex="1" parent="1">
          <mxGeometry x="549" y="223" width="56" height="20" as="geometry" />
        </mxCell>
        <mxCell id="x5FEee_XjgUS8_5zKWIf-98" value="打标信息" style="text;html=1;strokeColor=none;fillColor=none;align=center;verticalAlign=middle;whiteSpace=wrap;rounded=0;" vertex="1" parent="1">
          <mxGeometry x="549" y="253" width="56" height="20" as="geometry" />
        </mxCell>
        <mxCell id="x5FEee_XjgUS8_5zKWIf-110" value="查询商品标签" style="text;html=1;strokeColor=none;fillColor=none;align=center;verticalAlign=middle;whiteSpace=wrap;rounded=0;" vertex="1" parent="1">
          <mxGeometry x="894" y="387" width="113" height="20" as="geometry" />
        </mxCell>
        <mxCell id="x5FEee_XjgUS8_5zKWIf-112" value="查询类目/商家标签" style="text;html=1;strokeColor=none;fillColor=none;align=center;verticalAlign=middle;whiteSpace=wrap;rounded=0;" vertex="1" parent="1">
          <mxGeometry x="916" y="485" width="113" height="20" as="geometry" />
        </mxCell>
        <mxCell id="x5FEee_XjgUS8_5zKWIf-115" value="read" style="text;html=1;strokeColor=none;fillColor=none;align=center;verticalAlign=middle;whiteSpace=wrap;rounded=0;" vertex="1" parent="1">
          <mxGeometry x="989" y="245" width="40" height="20" as="geometry" />
        </mxCell>
        <mxCell id="x5FEee_XjgUS8_5zKWIf-124" value="" style="endArrow=classic;html=1;exitX=0.5;exitY=0;exitDx=0;exitDy=0;entryX=0.5;entryY=1;entryDx=0;entryDy=0;entryPerimeter=0;" edge="1" parent="1" source="x5FEee_XjgUS8_5zKWIf-76" target="x5FEee_XjgUS8_5zKWIf-42">
          <mxGeometry width="50" height="50" relative="1" as="geometry">
            <mxPoint x="680" y="347" as="sourcePoint" />
            <mxPoint x="730" y="297" as="targetPoint" />
          </mxGeometry>
        </mxCell>
        <mxCell id="x5FEee_XjgUS8_5zKWIf-125" value="read" style="text;html=1;strokeColor=none;fillColor=none;align=center;verticalAlign=middle;whiteSpace=wrap;rounded=0;" vertex="1" parent="1">
          <mxGeometry x="1105" y="422" width="40" height="20" as="geometry" />
        </mxCell>
      </root>
    </mxGraphModel>
  </diagram>
</mxfile>
